<svg xmlns="http://www.w3.org/2000/svg" width="880" height="320" font-family="-apple-system,Segoe UI,Helvetica,Arial,sans-serif">
<rect width="880" height="320" rx="12" fill="#0d1117"/>
<text x="28" y="40" fill="#e6edf3" font-size="22" font-weight="700">Query latency on the same Korean corpus (log scale)</text>
<text x="28" y="64" fill="#8b949e" font-size="13">Local retrieval compute per query. LLM-per-query architectures pay the meter every question.</text>
<line x1="300" y1="78" x2="300" y2="280" stroke="#21262d"/>
<text x="300" y="298" fill="#8b949e" font-size="11" text-anchor="middle">1ms</text>
<line x1="386" y1="78" x2="386" y2="280" stroke="#21262d"/>
<text x="386" y="298" fill="#8b949e" font-size="11" text-anchor="middle">10ms</text>
<line x1="472" y1="78" x2="472" y2="280" stroke="#21262d"/>
<text x="472" y="298" fill="#8b949e" font-size="11" text-anchor="middle">0.1s</text>
<line x1="558" y1="78" x2="558" y2="280" stroke="#21262d"/>
<text x="558" y="298" fill="#8b949e" font-size="11" text-anchor="middle">1s</text>
<line x1="644" y1="78" x2="644" y2="280" stroke="#21262d"/>
<text x="644" y="298" fill="#8b949e" font-size="11" text-anchor="middle">10s</text>
<line x1="730" y1="78" x2="730" y2="280" stroke="#21262d"/>
<text x="730" y="298" fill="#8b949e" font-size="11" text-anchor="middle">100s</text>
<text x="288" y="108.0" fill="#e6edf3" font-size="14" text-anchor="end">Lemory hybrid+graph</text>
<rect x="300" y="86" width="104" height="34" rx="6" fill="#f7d353"/>
<text x="414" y="108.0" fill="#e6edf3" font-size="14" font-weight="600">16ms<tspan fill="#8b949e" font-weight="400">  0 LLM calls</tspan></text>
<text x="288" y="156.0" fill="#e6edf3" font-size="14" text-anchor="end">MemPalace</text>
<rect x="300" y="134" width="228" height="34" rx="6" fill="#f85149"/>
<text x="538" y="156.0" fill="#e6edf3" font-size="14" font-weight="600">443ms<tspan fill="#8b949e" font-weight="400">  </tspan></text>
<text x="288" y="204.0" fill="#e6edf3" font-size="14" text-anchor="end">qmd vsearch</text>
<rect x="300" y="182" width="312" height="34" rx="6" fill="#58a6ff"/>
<text x="622" y="204.0" fill="#e6edf3" font-size="14" font-weight="600">4.2s<tspan fill="#8b949e" font-weight="400">  </tspan></text>
<text x="288" y="252.0" fill="#e6edf3" font-size="14" text-anchor="end">qmd query</text>
<rect x="300" y="230" width="411" height="34" rx="6" fill="#58a6ff"/>
<text x="721" y="252.0" fill="#e6edf3" font-size="14" font-weight="600">59.5s<tspan fill="#8b949e" font-weight="400">  1 LLM pipeline per query</tspan></text>
</svg>