<svg xmlns="http://www.w3.org/2000/svg" width="880" height="308" font-family="-apple-system,Segoe UI,Helvetica,Arial,sans-serif">
<rect width="880" height="308" rx="12" fill="#0d1117"/>
<text x="28" y="40" fill="#e6edf3" font-size="22" font-weight="700">LongMemEval S, all 500 questions, zero API calls</text>
<text x="28" y="64" fill="#8b949e" font-size="13">Session-level Recall@5, local embedder. 'any' = protocol most headline numbers use; 'strict' = every evidence session.</text>
<line x1="408" y1="78" x2="408" y2="280" stroke="#21262d"/>
<line x1="515" y1="78" x2="515" y2="280" stroke="#21262d"/>
<line x1="622" y1="78" x2="622" y2="280" stroke="#21262d"/>
<line x1="730" y1="78" x2="730" y2="280" stroke="#21262d"/>
<text x="288" y="108.0" fill="#e6edf3" font-size="14" text-anchor="end">Lemory, any@5</text>
<rect x="300" y="86" width="418" height="34" rx="6" fill="#f7d353"/>
<text x="728" y="108.0" fill="#e6edf3" font-size="14" font-weight="600">0.972<tspan fill="#8b949e" font-weight="400">  </tspan></text>
<text x="288" y="156.0" fill="#e6edf3" font-size="14" text-anchor="end">Lemory, strict all@5</text>
<rect x="300" y="134" width="369" height="34" rx="6" fill="#f7d353"/>
<text x="679" y="156.0" fill="#e6edf3" font-size="14" font-weight="600">0.857<tspan fill="#8b949e" font-weight="400">  </tspan></text>
<text x="288" y="204.0" fill="#e6edf3" font-size="14" text-anchor="end">Vector-only, any@5</text>
<rect x="300" y="182" width="415" height="34" rx="6" fill="#6e7681"/>
<text x="725" y="204.0" fill="#e6edf3" font-size="14" font-weight="600">0.964<tspan fill="#8b949e" font-weight="400">  </tspan></text>
<text x="288" y="252.0" fill="#e6edf3" font-size="14" text-anchor="end">Vector-only, strict all@5</text>
<rect x="300" y="230" width="348" height="34" rx="6" fill="#6e7681"/>
<text x="658" y="252.0" fill="#e6edf3" font-size="14" font-weight="600">0.809<tspan fill="#8b949e" font-weight="400">  </tspan></text>
</svg>